<?xml version="1.0" encoding="UTF-8" standalone="no"?>
<!-- Created with Inkscape (http://www.inkscape.org/) -->

<svg
   xmlns:dc="http://purl.org/dc/elements/1.1/"
   xmlns:cc="http://creativecommons.org/ns#"
   xmlns:rdf="http://www.w3.org/1999/02/22-rdf-syntax-ns#"
   xmlns:svg="http://www.w3.org/2000/svg"
   xmlns="http://www.w3.org/2000/svg"
   xmlns:sodipodi="http://sodipodi.sourceforge.net/DTD/sodipodi-0.dtd"
   xmlns:inkscape="http://www.inkscape.org/namespaces/inkscape"
   id="svg3055"
   version="1.1"
   inkscape:version="0.48.1 r9760"
   width="297"
   height="251"
   sodipodi:docname="RACE-Logo-Slanting-PROPOSAL-grayscale.png">
  <metadata
     id="metadata3061">
    <rdf:RDF>
      <cc:Work
         rdf:about="">
        <dc:format>image/svg+xml</dc:format>
        <dc:type
           rdf:resource="http://purl.org/dc/dcmitype/StillImage" />
        <dc:title></dc:title>
      </cc:Work>
    </rdf:RDF>
  </metadata>
  <defs
     id="defs3059" />
  <sodipodi:namedview
     pagecolor="#ffffff"
     bordercolor="#666666"
     borderopacity="1"
     objecttolerance="10"
     gridtolerance="10"
     guidetolerance="10"
     inkscape:pageopacity="0"
     inkscape:pageshadow="2"
     inkscape:window-width="1276"
     inkscape:window-height="756"
     id="namedview3057"
     showgrid="false"
     inkscape:zoom="2.0876494"
     inkscape:cx="234.83897"
     inkscape:cy="128.39198"
     inkscape:window-x="4"
     inkscape:window-y="0"
     inkscape:window-maximized="0"
     inkscape:current-layer="svg3055" />
  <path
     style="fill:#d2d2d2;fill-opacity:1"
     d=""
     id="path3127"
     inkscape:connector-curvature="0" />
  <path
     style="fill:#d2d2d2;fill-opacity:1"
     d=""
     id="path3129"
     inkscape:connector-curvature="0" />
  <g
     id="g3160">
    <path
       inkscape:connector-curvature="0"
       id="path3103"
       d="M 25.969878,248.36772 C 10.223428,245.2524 0.91405827,230.88602 3.6290383,213.89095 c 0.55003,-3.4431 5.23256,-19.47254 10.4056197,-35.62099 5.17305,-16.14845 17.14785,-53.66082 26.61067,-83.360821 9.46282,-29.7 18.50943,-56.584127 20.10358,-59.742504 6.206805,-12.297145 20.827835,-24.40477 34.877225,-28.881726 6.266527,-1.996883 9.463237,-2.099197 88.999997,-2.848536 89.39964,-0.842259 89.06962,-0.857466 97.16909,4.47736 7.5722,4.987533 11.83091,13.502334 11.83091,23.654543 0,6.479654 -1.49625,12.69845 -27.62241,114.806004 -18.70649,73.10961 -18.86758,73.55614 -30.86194,85.55051 -8.21757,8.21757 -18.22908,13.89239 -28.25838,16.01769 -5.58156,1.18279 -21.5466,1.41589 -91.75727,1.33973 -46.749997,-0.0507 -86.870312,-0.46223 -89.156252,-0.91449 z m 184.800912,-2.94817 c 17.01362,-5.32626 32.18402,-20.03102 37.66652,-36.51041 3.7801,-11.36226 43.41013,-168.008202 43.92725,-173.631577 1.00449,-10.923309 -3.3798,-20.96881 -11.48074,-26.305196 -8.15087,-5.369284 -7.82458,-5.354029 -96.75769,-4.523493 -79.27511,0.740342 -82.216,0.835136 -88.499997,2.852618 -12.61674,4.050611 -23.62719,12.304632 -30.857935,23.132748 -4.5255,6.776995 -4.19327,5.806837 -36.80494,107.4749 l -22.7743897,71 -0.0266,9.5 c -0.0234,8.37634 0.28643,10.0914 2.61964,14.5 3.6612197,6.91785 8.9325897,11.32528 15.9637997,13.34743 2.0643,0.59369 37.89231,1.00731 92.025042,1.06238 85.82929,0.0873 88.84652,0.027 95,-1.8994 z M 25.815948,228.38351 c -3.56902,-2.17598 -6.18982,-7.16858 -6.18982,-11.79155 0,-1.58478 5.42207,-20.11274 12.04905,-41.17323 12.82911,-40.77085 14.37179,-44.25723 21.88811,-49.46604 7.54628,-5.22957 10.73951,-5.54355 56.379642,-5.54355 36.72008,0 42.3062,0.2018 45.33195,1.63761 3.56835,1.69329 7.35125,7.5198 7.35125,11.32255 0,2.9447 6.91192,2.89964 9.59265,-0.0625 3.98825,-4.40696 5.78939,-4.68705 32.46539,-5.04851 22.841,-0.3095 25.81187,-0.16437 28.16247,1.3758 1.44529,0.94699 2.91726,2.6338 3.27103,3.74845 0.53612,1.68916 1.50625,2.02919 5.82585,2.04195 10.01337,0.0296 10.54937,2.08369 5.54684,21.25721 -5.12846,19.6562 -5.72531,20.49885 -15.32656,21.63847 -5.81008,0.68963 -5.3574,-0.1766 -11.01246,21.07328 -3.84497,14.44817 -5.83254,18.31617 -11.35909,22.10591 -3.45825,2.37143 -3.92494,2.41455 -29.29872,2.70694 -29.53536,0.34033 -30.93195,0.0572 -32.95071,-6.68084 -1.04927,-3.50215 -0.71857,-5.44546 3.46161,-20.34178 2.54193,-9.05834 4.6217,-16.92589 4.6217,-17.48344 0,-1.64132 -4.8905,-0.22373 -5.41398,1.56933 -0.26327,0.90179 -2.33812,8.13922 -4.61078,16.08319 -4.90012,17.12813 -6.47612,20.46933 -12.01582,25.47411 -8.59079,7.76127 -6.8493,7.53616 -58.459417,7.55661 -44.394865,0.0176 -46.115515,-0.0522 -49.310185,-1.99993 z m 99.742572,-4.93988 c 7.66469,-3.91023 10.34749,-8.48711 15.43542,-26.33291 2.54771,-8.93601 4.63233,-16.687 4.6325,-17.22443 1.9e-4,-0.62521 -15.43786,-0.87965 -42.86365,-0.70644 -40.286462,0.25443 -42.999922,0.1606 -45.125302,-1.56043 -1.27737,-1.03435 -2.26136,-2.93951 -2.26136,-4.37833 0,-4.80909 9.0466,-31.29258 11.46244,-33.55574 4.374735,-4.09825 6.428615,-4.27621 49.352662,-4.27621 25.59266,0 41.4349,-0.36435 41.4349,-0.95295 0,-0.52412 -0.53761,-2.13287 -1.19469,-3.57499 -2.45972,-5.39851 -3.12331,-5.47253 -49.00565,-5.46648 -24.361457,0.003 -43.783922,0.41857 -45.799662,0.97944 -4.24473,1.18109 -10.5223,6.19053 -12.46469,9.9467 -2.19737,4.24925 -24.53531,75.92041 -24.53531,78.72142 0,3.14619 1.63942,6.36517 4.36704,8.57462 1.94983,1.57943 6.02143,1.72968 47.422805,1.75 43.075677,0.0212 45.478187,-0.0738 49.142547,-1.94327 z m 84.42346,-8.03449 c 2.90294,-3.17611 4.05244,-6.7405 12.42156,-38.51709 5.07243,-19.2594 9.22259,-36.44638 9.22259,-38.1933 0,-5.86843 -1.7476,-6.28961 -26.09751,-6.28961 -11.90887,0 -23.08578,0.28666 -24.83759,0.63702 -7.0402,1.40804 -7.7723,3.06317 -18.83875,42.59021 -5.62438,20.08913 -10.22615,37.23875 -10.22615,38.11028 0,0.87152 1.00741,2.52312 2.23869,3.67023 2.16588,2.01783 3.0627,2.07601 27.57843,1.78896 l 25.33975,-0.2967 3.19898,-3.5 z m -47.99533,-57.27285 c 2.55172,-8.95007 4.63948,-16.60007 4.63948,-17 0,-0.39993 -21.30526,-0.72715 -47.34501,-0.72715 -46.408507,0 -47.381587,0.0404 -49.194057,2.04318 -2.64593,2.92371 -10.390245,28.33175 -9.254195,30.36175 0.79769,1.4254 5.97822,1.59507 48.703472,1.59507 l 47.81084,0 4.63947,-16.27285 z m 74.36718,14.87007 c 1.47038,-0.4738 2.55601,-1.97216 3.19345,-4.40753 0.53117,-2.02933 2.27298,-8.63969 3.87068,-14.68969 1.59771,-6.05 2.71065,-11.5625 2.47321,-12.25 -0.25547,-0.7397 -2.19004,-1.25 -4.73882,-1.25 l -4.30712,0 -2.16761,8.25 c -1.19219,4.5375 -3.20674,11.94725 -4.47678,16.4661 -1.27004,4.51886 -2.12289,8.40239 -1.89522,8.63006 0.56817,0.56817 5.33835,0.12427 8.04821,-0.74894 z M 62.824218,116.7623 c -3.9501,-1.97779 -6.19809,-5.92906 -6.19809,-10.89432 0,-5.23001 20.563955,-70.134093 23.645005,-74.62851 2.62218,-3.825045 8.02049,-8.031365 12.42449,-9.681063 1.41322,-0.52938 21.663217,-1.287603 44.999997,-1.68494 47.3465,-0.806134 47.96419,-0.737997 51.90488,5.725496 2.53998,4.166074 2.53018,4.810176 -0.0732,4.810176 -1.15433,0 -3.35988,-1.35 -4.90121,-3 l -2.80242,-3 -41.84879,0.0056 c -27.29928,0.0036 -43.239457,0.387626 -45.848787,1.104466 -2.44949,0.672929 -5.55051,2.713431 -8,5.264069 -3.79725,3.954059 -4.51958,5.836862 -14.2508,37.145534 -5.637945,18.139195 -10.250445,34.688302 -10.250005,36.775802 5.7e-4,2.69569 0.71203,4.50668 2.45535,6.25 l 2.45454,2.45453 43.577572,0 c 46.902,0 46.8034,0.01 53.1577,-5.34846 3.03074,-2.55573 6.35564,-3.51903 6.35564,-1.84138 0,1.52479 -6.39076,7.34845 -10.44709,9.52007 -3.96208,2.12114 -5.05025,2.17544 -48.55291,2.42298 -39.715777,0.22598 -44.854992,0.0755 -47.801912,-1.40005 z M 77.759493,99.512719 c -1.10254,-0.698479 0.31787,-6.348107 7.3501,-29.234688 4.79422,-15.60289 9.35708,-29.381392 10.1397,-30.618892 1.3467,-2.129435 2.06645,-2.25 13.432007,-2.25 13.32147,0 17.69439,1.16195 20.50262,5.447859 4.06601,6.205516 -1.02652,19.43959 -9.50967,24.713008 l -4.7431,2.948474 1.84608,3.731265 c 1.3661,2.761133 1.91145,6.425679 2.09749,14.09436 l 0.25141,10.363096 -2.80367,0.952191 c -1.54202,0.523708 -4.26551,0.677948 -6.05221,0.342758 l -3.24854,-0.609426 -0.99458,-10.894476 c -0.56203,-6.156403 -1.57112,-11.589159 -2.32023,-12.491793 -0.72911,-0.878524 -2.76203,-1.597316 -4.517597,-1.597316 l -3.19194,0 -3.69894,11.971947 c -2.5398,8.220286 -4.3009,12.294109 -5.61987,13 -2.32987,1.246904 -7.04869,1.316554 -8.91906,0.131633 z M 110.13635,62.969315 c 3.70896,-1.549704 7.47998,-6.707371 7.48604,-10.238747 0.006,-3.641048 -2.62636,-5.322356 -8.31769,-5.312069 l -5.17857,0.0094 -2.25,7.411021 c -1.2375,4.076061 -2.249997,7.896849 -2.249997,8.49064 0,1.55149 6.465187,1.329916 10.510217,-0.360205 z m 14.23978,36.750498 c -0.9625,-0.251527 -1.75,-0.71644 -1.75,-1.03314 0,-1.09882 35.47541,-58.752942 37.233,-60.510533 1.29277,-1.292767 3.36146,-1.767001 7.70798,-1.767001 3.26754,0 6.16665,0.365134 6.44246,0.81141 0.79812,1.291377 1.69271,21.016819 1.91335,42.18859 l 0.20321,19.5 -6,0 -6,0 -0.29569,-6.75 -0.29569,-6.75 -10.86824,0 -10.86825,0 -3.6658,6.555066 c -4.31325,7.712812 -7.35591,9.428215 -13.75633,7.755608 z m 39.03078,-37.060674 c 0.15443,-6.7375 -0.0706,-12.233263 -0.5,-12.212806 -0.81469,0.03881 -13.53289,21.426515 -14.11286,23.733062 -0.25742,1.023743 1.31642,1.254246 7,1.02521 l 7.33208,-0.295466 0.28078,-12.25 z m 34.71922,36.548285 c -8.01053,-2.787186 -12.21354,-11.139375 -10.92046,-21.701063 2.13315,-17.423214 12.5405,-33.724 25.06986,-39.266333 8.77448,-3.88137 20.77227,-3.337396 24.81059,1.1249 1.99422,2.203593 1.57059,7.25255 -0.89099,10.618957 -1.37196,1.876266 -1.48519,1.862492 -4.73728,-0.576267 -4.93381,-3.699896 -13.10731,-3.551127 -18.19733,0.331218 -4.83846,3.690475 -7.96593,8.766264 -10.5437,17.112102 -3.27989,10.619047 -2.5638,17.532628 2.11889,20.457015 3.38295,2.112683 11.05409,1.508002 16.61444,-1.309641 3.67973,-1.864656 5.11328,-2.194942 5.47179,-1.260678 0.77345,2.015563 -2.01834,9.006677 -4.35764,10.912281 -4.93675,4.021502 -17.74563,5.886115 -24.43817,3.557509 z m 35.16667,-0.464952 c -0.36667,-0.366666 -0.6552,-1.604166 -0.64117,-2.75 0.047,-3.838541 14.68737,-56.724836 16.08989,-58.122406 1.04339,-1.039706 5.16051,-1.413063 16.70658,-1.515022 8.42708,-0.07442 15.60715,0.149883 15.95571,0.498443 0.34856,0.34856 -0.0213,2.528674 -0.82197,4.844699 l -1.45571,4.210953 -10.93762,0.5 -10.93762,0.5 -1.14311,4.5 c -0.62871,2.475 -1.45285,5.7375 -1.83143,7.25 l -0.68832,2.75 9.01905,0 9.01905,0 0,2.777494 c 0,1.527621 -0.70052,3.777621 -1.5567,5 -1.40781,2.009928 -2.39711,2.222506 -10.34312,2.222506 l -8.78641,0 -2.15688,7.870293 c -1.18629,4.328661 -2.15689,8.153661 -2.15689,8.5 0,0.346339 4.725,0.629707 10.5,0.629707 7.67192,0 10.53102,0.336676 10.61515,1.25 0.25246,2.740377 -0.34792,5.358587 -1.7198,7.5 -1.39187,2.172594 -1.96817,2.25 -16.75174,2.25 -8.42065,0 -15.61028,-0.3 -15.97694,-0.666667 z"
       style="fill:#000000" />
    <path
       inkscape:connector-curvature="0"
       id="path3131"
       d="m 161.22965,219.13451 c -3.56134,-0.12202 -5.28161,-0.39876 -6.2679,-1.00832 -1.13855,-0.70366 -2.80925,-2.7712 -3.12283,-3.86457 -0.22474,-0.78364 0.49354,-3.61346 6.11159,-24.07787 10.78389,-39.2816 13.73704,-48.76559 16.53153,-53.09061 1.82297,-2.82142 3.74531,-3.76668 8.42502,-4.14282 4.24611,-0.34129 24.50292,-0.56565 32.44509,-0.35935 9.75288,0.25332 12.08529,0.50152 14.03624,1.49365 1.84967,0.94062 2.47802,2.81062 1.95925,5.8308 -0.87158,5.07417 -5.15507,22.31086 -11.12436,44.7643 -4.38825,16.50636 -5.91635,21.78725 -7.37531,25.48789 -1.21816,3.08987 -1.88171,4.06625 -5.15146,7.58014 l -0.98633,1.05998 -13.67979,0.16124 c -21.71569,0.25595 -28.17987,0.2896 -31.80074,0.16554 z"
       style="fill:#d2d2d2;fill-opacity:1" />
    <path
       inkscape:connector-curvature="0"
       id="path3133"
       d="m 228.54845,173.76009 c -0.40697,-0.25727 0.32443,-3.39604 3.6118,-15.49971 1.61909,-5.96129 3.3498,-12.38843 3.84602,-14.28253 l 0.90222,-3.44381 3.48314,0.0696 c 3.59573,0.0719 4.74778,0.27173 5.28286,0.91646 0.27882,0.33597 0.0258,2.12949 -0.8892,6.30196 -0.80169,3.65592 -5.22705,20.55226 -5.74658,21.94081 -0.41771,1.11643 -1.22256,2.23125 -1.97882,2.74089 -1.31442,0.88578 -7.62427,1.81713 -8.51144,1.2563 l 0,0 z"
       style="fill:#d2d2d2;fill-opacity:1" />
    <path
       inkscape:connector-curvature="0"
       id="path3135"
       d="m 70.455493,174.08083 c -6.018405,-0.17799 -8.699525,-0.49579 -9.306895,-1.10316 -0.70066,-0.70066 0.168,-5.34061 2.46994,-13.1931 2.48268,-8.46909 5.313705,-15.83796 6.655175,-17.32281 1.71519,-1.89851 3.5423,-1.96499 50.697757,-1.84447 31.29254,0.08 44.29377,0.23344 45.24077,0.53401 0.42017,0.13335 -0.007,1.74337 -7.06122,26.59294 l -1.8268,6.43548 -41.23275,0.0157 c -22.678007,0.009 -43.214197,-0.0429 -45.635977,-0.11456 z"
       style="fill:#d2d2d2;fill-opacity:1" />
    <path
       inkscape:connector-curvature="0"
       id="path3137"
       d="m 39.489528,225.05839 c -7.39053,-0.22465 -9.41567,-0.5884 -10.94849,-1.96653 -1.07056,-0.96253 -1.99153,-2.18247 -2.66803,-3.53414 -0.64956,-1.29786 -0.84613,-1.92923 -1.04617,-3.36026 -0.14672,-1.04959 -0.1137,-1.35982 0.3263,-3.06633 3.16725,-12.28382 20.59122,-68.0088 23.63204,-75.57952 0.69499,-1.7303 1.78343,-3.28548 3.47154,-4.96019 2.58407,-2.56355 6.72387,-5.28131 9.10823,-5.97951 2.25826,-0.66127 13.786535,-0.95039 42.622792,-1.06895 22.70019,-0.0933 36.96316,0.0654 41.91531,0.46651 5.17032,0.41878 7.99534,1.24238 9.10818,2.65538 0.81253,1.03169 1.86494,3.28737 2.32494,4.98313 0.20569,0.7583 0.19923,0.79466 -0.15718,0.88412 -1.76907,0.44401 -19.43523,0.7687 -42.5219,0.78152 -30.819427,0.0171 -39.413827,0.33718 -43.422167,1.61711 -2.3949,0.76473 -4.459295,2.32859 -5.390525,4.08354 -1.8512,3.48868 -5.7658,14.05521 -8.10554,21.87898 -2.39353,8.00362 -2.78266,10.5454 -1.90206,12.42421 0.53584,1.14325 1.77496,2.52653 2.62423,2.92953 2.18467,1.0367 6.79858,1.16077 38.413815,1.03303 30.666797,-0.12391 48.100587,0.0971 48.619837,0.61633 0.21472,0.21473 -5.2063,19.64736 -7.07454,25.35997 -0.87517,2.67606 -2.47633,6.71562 -3.37679,8.51932 -2.16987,4.3464 -5.16863,7.37747 -9.37848,9.47953 -2.47158,1.23411 -4.56337,1.56313 -11.51584,1.81134 -5.46203,0.19499 -68.201932,0.18818 -74.659502,-0.008 l 0,-1e-5 z"
       style="fill:#d2d2d2;fill-opacity:1" />
    <path
       inkscape:connector-curvature="0"
       id="path3143"
       d="m 150.23475,75.135934 c -0.79374,-0.11062 -1.30091,-0.343475 -1.3729,-0.63033 -0.0845,-0.336451 0.24092,-1.080736 1.51756,-3.471407 2.1927,-4.106112 5.83931,-10.34599 9.03116,-15.453623 1.26085,-2.017617 2.99297,-4.575897 3.28766,-4.855736 0.22943,-0.217872 0.25792,-0.225941 0.29901,-0.08468 0.25491,0.876402 0.39323,3.831757 0.38778,8.285171 -0.004,3.605322 -0.26181,15.837014 -0.33469,15.905452 -0.0768,0.07207 -6.76001,0.32135 -9.48123,0.353646 -1.51361,0.01797 -3.01407,-0.0039 -3.33435,-0.0485 z"
       style="fill:#d2d2d2;fill-opacity:1" />
    <path
       inkscape:connector-curvature="0"
       id="path3145"
       d="m 101.00266,64.179226 c -0.2927,-0.06681 -0.6928,-0.210962 -0.88911,-0.320328 l -0.356927,-0.198847 0.0118,-0.547913 c 0.0195,-0.90475 0.771657,-3.67313 3.054897,-11.243023 l 1.33654,-4.431218 3.64113,0.03768 c 2.88724,0.02988 3.82359,0.06752 4.52239,0.181768 2.39601,0.391742 3.98217,1.289397 4.6842,2.65091 0.43997,0.853285 0.53232,1.282698 0.52382,2.435624 -0.006,0.848922 -0.0454,1.141534 -0.2381,1.778225 -0.87386,2.887889 -3.2485,6.005804 -5.85118,7.682623 -1.3142,0.846695 -3.0472,1.426196 -5.54637,1.854665 -1.3106,0.224695 -4.13108,0.293768 -4.89307,0.119831 l 0,0 z"
       style="fill:#d2d2d2;fill-opacity:1" />
    <g
       transform="translate(-353.98664,10.538168)"
       id="g3156">
      <g
         id="g3153">
        <path
           inkscape:connector-curvature="0"
           id="path3151"
           d="m 397.08368,236.15411 c -19.00745,-0.27452 -19.70237,-0.34265 -23.60191,-2.31378 -4.86613,-2.45972 -9.15286,-6.87064 -11.71707,-12.0565 -2.13216,-4.31208 -2.34945,-5.71442 -2.36385,-15.25537 l -0.0128,-8.46774 7.70233,-23.87902 c 4.23629,-13.13346 12.96056,-40.2641 19.38728,-60.2903 23.49383,-73.208788 27.74443,-85.798632 30.76165,-91.112866 2.73123,-4.810517 7.38364,-10.308523 12.37496,-14.6241644 7.19776,-6.2234028 18.31945,-11.5521407 25.998,-12.4564359 7.42319,-0.8742208 66.01457,-1.7170353 126.59065,-1.8209577 40.14634,-0.068874 43.97932,0.1416463 49.03123,2.69296 9.4842,4.7897057 14.88816,13.717567 14.94127,24.684405 0.0229,4.724362 -0.30443,6.167617 -12.32865,54.362882 -16.54136,66.300787 -30.09635,118.628597 -32.15644,124.137047 -4.03177,10.7805 -12.10213,20.77212 -22.33582,27.65314 -6.64318,4.46681 -13.99985,7.57312 -20.01449,8.45101 -3.36342,0.49092 -132.45104,0.72616 -162.25637,0.29569 l 0,0 z m 71.48222,-16.58914 c 9.10188,-0.5527 12.22492,-1.39915 15.84841,-4.29548 5.43222,-4.34207 8.51136,-8.25628 10.54607,-13.40616 1.22499,-3.10048 4.18153,-12.67073 7.13909,-23.10905 1.16122,-4.09839 2.25537,-7.7265 2.43145,-8.06248 0.68666,-1.31025 3.98273,-2.51395 4.7588,-1.73787 0.22022,0.22023 -0.97275,4.9155 -4.59852,18.09873 -4.08778,14.86313 -4.34458,16.62554 -3.03523,20.83064 1.12083,3.59964 2.70758,4.70769 7.87014,5.49586 2.6883,0.41042 6.88241,0.46362 24.58008,0.31179 22.0399,-0.18909 25.67905,-0.39101 28.06523,-1.55721 2.33467,-1.14103 5.26955,-3.77689 6.80244,-6.10938 2.43956,-3.71208 3.41234,-6.60325 8.94754,-26.59266 2.5383,-9.16664 3.41865,-10.74047 6.24888,-11.17133 7.87227,-1.19842 9.24095,-1.65384 10.91642,-3.63236 2.0364,-2.40473 3.90446,-7.84938 7.12303,-20.76081 1.97657,-7.92909 2.77876,-13.0652 2.37594,-15.21236 -0.52655,-2.80679 -2.8857,-3.89306 -8.59698,-3.95849 -4.07173,-0.0466 -4.43759,-0.19765 -5.92593,-2.44574 -1.62273,-2.4511 -3.48499,-3.80696 -5.937,-4.32258 -2.3636,-0.49702 -29.77652,-0.47834 -41.29357,0.0281 -7.74802,0.34074 -11.32005,0.83951 -13.2834,1.8548 -0.58265,0.3013 -1.87008,1.282 -2.86095,2.17934 -2.30799,2.09013 -4.31499,2.87589 -6.81588,2.66849 -2.30975,-0.19154 -2.88139,-0.7118 -3.23416,-2.94344 -0.72551,-4.58952 -4.93428,-9.83638 -8.70462,-10.85163 -3.04204,-0.81913 -11.17812,-1.01737 -42.07696,-1.02523 -46.89541,-0.0119 -50.52952,0.30347 -57.74998,5.01187 -5.97756,3.89792 -8.68316,8.24453 -13.31811,21.39585 -4.82529,13.69141 -19.11077,60.06982 -21.05569,68.35821 -1.13439,4.8343 2.51058,11.9383 7.14927,13.93381 1.08358,0.46614 2.8938,0.83091 4.97963,1.00341 4.87016,0.40278 76.12472,0.42287 82.70456,0.0233 l 0,0 z m 37.33867,-112.43679 c 4.44774,-0.42161 6.06083,-0.88916 8.52663,-2.47146 3.98997,-2.56036 9.34435,-7.730591 9.34435,-9.022982 0,-1.712525 -3.11632,-0.882297 -6.607,1.760193 -3.27035,2.475699 -4.44646,3.144739 -6.60267,3.755969 -4.20031,1.19069 -7.81573,1.29812 -49.13527,1.45992 l -40.83689,0.15991 -1.91958,-2.07337 c -2.50305,-2.703598 -3.21186,-4.848364 -2.62095,-7.930726 1.07861,-5.626342 5.84461,-22.0877 12.95595,-44.748774 4.09217,-13.040159 6.74516,-20.638816 8.16128,-23.375423 1.54551,-2.986643 5.57874,-6.876593 8.72717,-8.41715 2.43087,-1.189449 2.70221,-1.242758 8.1038,-1.59212 3.07378,-0.198807 22.62099,-0.449422 43.43823,-0.556923 l 37.84953,-0.195456 2.62626,2.508251 c 3.5894,3.428101 6.01528,4.477283 7.32468,3.16788 0.69555,-0.695546 0.2898,-1.775922 -1.92597,-5.128254 -2.02451,-3.062944 -3.25495,-3.896221 -7.07014,-4.7879995 -2.20364,-0.5150892 -4.8089,-0.5759397 -23.64584,-0.552292 -20.63761,0.025908 -43.96367,0.500255 -57.86339,1.1766805 -5.31272,0.258542 -7.31776,0.486376 -8.76892,0.996416 -4.60548,1.618695 -10.86425,7.070871 -12.65785,11.026568 -3.62994,8.005663 -16.62079,48.31114 -21.50102,66.709213 -1.77671,6.698011 -1.66405,9.474461 0.53956,13.297219 1.14545,1.9871 3.45751,3.85546 5.56581,4.49769 0.75423,0.22976 2.59068,0.5381 4.081,0.6852 4.16387,0.411 79.18621,0.0997 83.91124,-0.34818 l 0,0 z M 439.50232,89.444692 c 0.73123,-0.219084 1.68849,-0.824948 2.12723,-1.346364 1.13842,-1.352938 3.13805,-6.683674 5.98412,-15.952877 l 2.46999,-8.044352 2.2129,0.0191 c 2.69364,0.02327 4.31549,0.550867 5.14729,1.674431 0.89509,1.209054 1.82821,6.495423 2.63378,14.920935 0.38387,4.014981 0.69795,7.540098 0.69795,7.833589 0,0.406435 0.65085,0.634867 2.73074,0.958423 3.02436,0.470474 5.158,0.320619 7.94547,-0.558054 l 1.85604,-0.58505 -0.0128,-1.71637 c -0.0439,-5.901926 -0.70506,-16.986944 -1.13271,-18.990557 -0.27833,-1.304032 -1.04531,-3.552619 -1.70441,-4.99686 l -1.19834,-2.62589 1.43137,-0.893929 c 4.85659,-3.033069 7.59466,-5.429358 9.63555,-8.4328 1.31033,-1.928321 2.95791,-5.438992 3.64947,-7.776318 0.79599,-2.690285 0.85167,-7.673929 0.10459,-9.361783 -1.27944,-2.890594 -4.0379,-4.942388 -8.03504,-5.976611 -2.08934,-0.540598 -20.8142,-1.011671 -23.6011,-0.593748 -3.19666,0.479369 -3.41752,0.93846 -9.24463,19.216416 -9.15809,28.726278 -12.4669,40.624088 -11.78897,42.390746 0.12138,0.316311 0.56701,0.714203 0.9903,0.884211 1.11466,0.447693 5.54888,0.418784 7.10117,-0.04629 l 1e-5,0 z m 46.17582,-0.318137 c 2.56125,-1.203929 4.27834,-3.492244 9.4381,-12.57788 l 0.91369,-1.608871 10.60537,0 10.60537,0 0.21905,2.591426 c 0.12049,1.425283 0.22038,3.673468 0.222,4.995966 0.002,1.322495 0.0991,3.204741 0.21654,4.182765 l 0.21359,1.778225 6.04959,0 6.04959,0 -0.004,-8.213706 c -0.005,-10.866883 -0.56065,-33.904819 -1.02675,-42.592726 -0.40678,-7.582125 -0.78481,-10.757489 -1.34773,-11.320404 -0.23181,-0.231812 -2.42984,-0.365075 -6.02152,-0.365075 -6.62472,0 -7.18768,0.195458 -9.32148,3.236424 -3.96737,5.654051 -35.14124,56.481236 -35.97619,58.657089 -0.65321,1.702232 6.20548,2.627797 9.16477,1.236767 l 0,0 z m 82.88188,-0.432278 c 4.13998,-1.055551 7.34203,-2.570317 8.69802,-4.114711 2.25521,-2.568539 3.94288,-7.136546 3.79692,-10.277101 -0.0341,-0.732629 -0.15412,-0.790812 -1.30766,-0.633733 -0.69858,0.09513 -2.65302,0.797014 -4.34318,1.559741 -3.85656,1.740371 -7.00533,2.495609 -10.47536,2.512541 -3.46057,0.0169 -5.29912,-0.509091 -6.93011,-1.982593 -3.85693,-3.484508 -4.06613,-10.41756 -0.62259,-20.633125 2.30531,-6.838874 4.32414,-10.369356 7.95563,-13.912576 5.75805,-5.61808 13.7,-6.375086 20.3033,-1.935258 1.09302,0.734905 2.24432,1.430096 2.55844,1.544865 0.89328,0.326377 2.11299,-0.88014 3.08949,-3.056061 1.62956,-3.631139 1.53931,-7.223771 -0.23056,-9.178521 -3.56857,-3.941312 -15.14187,-4.694835 -23.56215,-1.5341 -11.32292,4.250303 -21.43316,17.620239 -25.25979,33.403949 -2.69991,11.136302 -1.24199,19.624143 4.29348,24.996134 1.71649,1.665797 5.59233,3.602494 8.07422,4.034566 3.19513,0.556239 10.23668,0.155783 13.9619,-0.794017 z m 49.70629,-0.411281 c 1.92015,-0.768291 3.37145,-3.709686 3.48549,-7.064157 0.078,-2.295705 0.0543,-2.370662 -0.89682,-2.834657 -0.7198,-0.351143 -3.43916,-0.547927 -10.33064,-0.747569 -5.14451,-0.149035 -9.39176,-0.283317 -9.43833,-0.298406 -0.28858,-0.0935 1.63423,-8.06374 3.4498,-14.299752 l 0.55591,-1.909417 8.20077,-0.149046 c 9.05501,-0.164569 9.50687,-0.258615 10.87012,-2.262353 1.08426,-1.593686 1.56029,-3.43612 1.56263,-6.047987 l 0.002,-2.116935 -8.9319,0 -8.93189,0 1.72756,-6.942817 1.72756,-6.942815 1.02288,-0.154827 c 0.56259,-0.08516 5.44305,-0.330218 10.84546,-0.544587 5.40242,-0.214366 9.9217,-0.487966 10.04286,-0.607998 0.45071,-0.446547 2.32004,-6.872955 2.32004,-7.975891 0,-0.938225 -0.15258,-1.18301 -0.84588,-1.357016 -1.37223,-0.344409 -25.1728,-0.248267 -27.96322,0.112956 -4.36371,0.56489 -4.07752,0.263217 -6.02861,6.354729 -4.02865,12.577908 -12.89006,45.182814 -13.94771,51.319615 -0.29746,1.725914 -0.29609,2.557379 0.006,3.471772 0.21824,0.66129 0.4993,1.222993 0.62457,1.248226 1.24444,0.250662 15.46481,0.529928 21.64582,0.425088 6.19026,-0.104994 8.15911,-0.249287 9.22595,-0.676156 l 0,0 z"
           style="fill:#d2d2d2;fill-opacity:1" />
      </g>
    </g>
  </g>
</svg>
